<svg version="1.1" xmlns="http://www.w3.org/2000/svg" viewBox="0 0 196.35339077993865 213.25857543945312" width="392.7067815598773" height="426.51715087890625">
  <!-- svg-source:excalidraw -->
  
  <defs>
    <style>
      @font-face {
        font-family: "Virgil";
        src: url("https://excalidraw.com/Virgil.woff2");
      }
      @font-face {
        font-family: "Cascadia";
        src: url("https://excalidraw.com/Cascadia.woff2");
      }
    </style>
  </defs>
  <rect x="0" y="0" width="196.35339077993865" height="213.25857543945312" fill="#ffffff"></rect><g transform="translate(23.392578125 10) rotate(0 29.5 12.5)"><text x="0" y="18" font-family="Virgil, Segoe UI Emoji" font-size="20px" fill="#000000" text-anchor="start" style="white-space: pre;" direction="ltr">Human</text></g><g transform="translate(10 178.25857543945312) rotate(0 45 12.5)"><text x="0" y="18" font-family="Virgil, Segoe UI Emoji" font-size="20px" fill="#000000" text-anchor="start" style="white-space: pre;" direction="ltr">Computer</text></g><g stroke-linecap="round"><g transform="translate(53.567717232349196 45.65606689453125) rotate(0 0.5396521630790403 62.21880254857243)"><path d="M-0.76 -0.85 C-0.36 20.18, 1.34 104.44, 1.84 125.28 M1.04 1.32 C1.39 22.1, 1.08 102.94, 1.25 123.62" stroke="#000000" stroke-width="1" fill="none"></path></g><g transform="translate(53.567717232349196 45.65606689453125) rotate(0 0.5396521630790403 62.21880254857243)"><path d="M-10.47 96.59 C-5.18 104.49, -4.34 111.23, 1.69 125.33 M-9.04 96.43 C-6.73 101.22, -4.85 107.98, 1.48 124.56" stroke="#000000" stroke-width="1" fill="none"></path></g><g transform="translate(53.567717232349196 45.65606689453125) rotate(0 0.5396521630790403 62.21880254857243)"><path d="M10.05 96.55 C10.12 104.33, 5.76 111.08, 1.69 125.33 M11.49 96.39 C9.3 101.06, 6.68 107.82, 1.48 124.56" stroke="#000000" stroke-width="1" fill="none"></path></g></g><g transform="translate(71.35339077993865 81.73988244792884) rotate(0 57.5 12.5)"><text x="0" y="18" font-family="Virgil, Segoe UI Emoji" font-size="20.02581965776877px" fill="#000000" text-anchor="start" style="white-space: pre;" direction="ltr">Abstraction</text></g></svg>