<svg version="1.1" xmlns="http://www.w3.org/2000/svg" viewBox="0 0 340.9031528880637 187.09720672132863" width="681.8063057761274" height="374.19441344265726">
  <!-- svg-source:excalidraw -->
  
  <defs>
    <style>
      @font-face {
        font-family: "Virgil";
        src: url("https://excalidraw.com/Virgil.woff2");
      }
      @font-face {
        font-family: "Cascadia";
        src: url("https://excalidraw.com/Cascadia.woff2");
      }
    </style>
  </defs>
  <rect x="0" y="0" width="340.9031528880637" height="187.09720672132863" fill="#ffffff"></rect><g transform="translate(10 151.87353303286892) rotate(0 33.5 12.5)"><text x="0" y="18" font-family="Virgil, Segoe UI Emoji" font-size="20px" fill="#000000" text-anchor="start" style="white-space: pre;" direction="ltr">Domain</text></g><g transform="translate(240.9031528880637 152.09720672132863) rotate(0 45 12.5)"><text x="0" y="18" font-family="Virgil, Segoe UI Emoji" font-size="20px" fill="#000000" text-anchor="start" style="white-space: pre;" direction="ltr">Computer</text></g><g stroke-linecap="round"><g transform="translate(228.34069364239213 164.17310911118676) rotate(0 -68.88670830528758 0.4865210382152725)"><path d="M-0.76 -0.85 C-23.71 -0.39, -115.38 1.55, -138.22 1.82 M1.04 1.32 C-21.96 1.53, -115.64 0.05, -138.81 0.16" stroke="#000000" stroke-width="1" fill="none"></path></g><g transform="translate(228.34069364239213 164.17310911118676) rotate(0 -68.88670830528758 0.4865210382152725)"><path d="M-111.96 -8.78 C-116.34 -5.72, -125.29 -3.57, -138.37 1.87 M-110.53 -8.94 C-116.65 -8.36, -123.22 -5.57, -138.58 1.1" stroke="#000000" stroke-width="1" fill="none"></path></g><g transform="translate(228.34069364239213 164.17310911118676) rotate(0 -68.88670830528758 0.4865210382152725)"><path d="M-112.1 11.74 C-116.29 9.59, -125.2 6.52, -138.37 1.87 M-110.67 11.58 C-116.74 7.67, -123.28 5.96, -138.58 1.1" stroke="#000000" stroke-width="1" fill="none"></path></g></g><g transform="translate(140.91494860870125 10) rotate(0 29.5 12.5)"><text x="0" y="18" font-family="Virgil, Segoe UI Emoji" font-size="20px" fill="#000000" text-anchor="start" style="white-space: pre;" direction="ltr">Human</text></g><g stroke-linecap="round"><g transform="translate(204.78362729876903 42.77066378268256) rotate(0 33.42799031318145 49.24189492285382)"><path d="M1.18 0.03 C12.16 16.58, 55.73 82, 66.51 98.47 M0.34 -1.01 C11.17 15.74, 55.13 82.69, 65.93 99.49" stroke="#000000" stroke-width="1" fill="none"></path></g><g transform="translate(204.78362729876903 42.77066378268256) rotate(0 33.42799031318145 49.24189492285382)"><path d="M42 82.61 C48.61 87.65, 57.64 95.55, 67.56 97.63 M41.3 81.92 C50.59 88, 60.63 95.57, 65.78 100.25" stroke="#000000" stroke-width="1" fill="none"></path></g><g transform="translate(204.78362729876903 42.77066378268256) rotate(0 33.42799031318145 49.24189492285382)"><path d="M59.2 71.42 C59.68 80.57, 62.66 92.4, 67.56 97.63 M58.5 70.73 C61.44 80.97, 65.07 92.72, 65.78 100.25" stroke="#000000" stroke-width="1" fill="none"></path></g></g><g stroke-linecap="round"><g transform="translate(133.00761394173514 36.42062993960741) rotate(0 -37.82412588437364 50.961428647313625)"><path d="M-0.78 -0.41 C-13.39 16.6, -63.45 84.99, -76.32 102.32 M1.01 -1.66 C-11.6 15.48, -63.32 86.37, -76.66 103.59" stroke="#000000" stroke-width="1" fill="none"></path></g><g transform="translate(133.00761394173514 36.42062993960741) rotate(0 -37.82412588437364 50.961428647313625)"><path d="M-68.66 76.79 C-70.9 80.97, -70.92 88.72, -75.89 102.16 M-68.25 75.63 C-72.32 84.98, -75.59 96.58, -76.68 103.33" stroke="#000000" stroke-width="1" fill="none"></path></g><g transform="translate(133.00761394173514 36.42062993960741) rotate(0 -37.82412588437364 50.961428647313625)"><path d="M-52.23 89.09 C-58.52 90.16, -62.56 94.89, -75.89 102.16 M-51.82 87.93 C-62.04 92.72, -71.52 99.67, -76.68 103.33" stroke="#000000" stroke-width="1" fill="none"></path></g></g><g transform="translate(129.8751444137182 84.0769405261284) rotate(0 37 12.5)"><text x="0" y="18" font-family="Virgil, Segoe UI Emoji" font-size="20px" fill="#000000" text-anchor="start" style="white-space: pre;" direction="ltr">Meaning</text></g></svg>