<svg version="1.1" xmlns="http://www.w3.org/2000/svg" viewBox="0 0 324.7376616517769 181.14831397484647" width="649.4753233035538" height="362.29662794969295">
  <!-- svg-source:excalidraw -->
  
  <defs>
    <style>
      @font-face {
        font-family: "Virgil";
        src: url("https://excalidraw.com/Virgil.woff2");
      }
      @font-face {
        font-family: "Cascadia";
        src: url("https://excalidraw.com/Cascadia.woff2");
      }
    </style>
  </defs>
  <rect x="0" y="0" width="324.7376616517769" height="181.14831397484647" fill="#ffffff"></rect><g transform="translate(10 146.14831397484647) rotate(0 33.5 12.5)"><text x="0" y="18" font-family="Virgil, Segoe UI Emoji" font-size="20px" fill="#000000" text-anchor="start" style="white-space: pre;" direction="ltr">Domain</text></g><g transform="translate(13.621903424897596 10) rotate(0 29.5 12.5)"><text x="0" y="18" font-family="Virgil, Segoe UI Emoji" font-size="20px" fill="#000000" text-anchor="start" style="white-space: pre;" direction="ltr">Human</text></g><g transform="translate(218.8860387245702 12.318086681412979) rotate(0 29.5 12.5)"><text x="0" y="18" font-family="Virgil, Segoe UI Emoji" font-size="20px" fill="#000000" text-anchor="start" style="white-space: pre;" direction="ltr">Human</text></g><g stroke-linecap="round"><g transform="translate(43.911485466683985 41.93260423156448) rotate(0 0.1175881419013649 46.626198115552086)"><path d="M-0.78 -0.41 C-0.68 15.16, 0.1 77.76, -0.06 93.65 M1.01 -1.66 C1.11 14.03, 0.23 79.15, -0.4 94.92" stroke="#000000" stroke-width="1" fill="none"></path></g><g transform="translate(43.911485466683985 41.93260423156448) rotate(0 0.1175881419013649 46.626198115552086)"><path d="M-10.65 68.41 C-8.43 72.64, -3.98 80.31, 0.37 93.49 M-10.25 67.24 C-7.42 76.39, -3.79 87.87, -0.42 94.66" stroke="#000000" stroke-width="1" fill="none"></path></g><g transform="translate(43.911485466683985 41.93260423156448) rotate(0 0.1175881419013649 46.626198115552086)"><path d="M9.86 68.9 C7.06 72.88, 6.49 80.43, 0.37 93.49 M10.27 67.74 C5.35 76.81, 1.22 88.11, -0.42 94.66" stroke="#000000" stroke-width="1" fill="none"></path></g></g><g transform="translate(242.73766165177688 142.6582342624181) rotate(0 36 10)"><text x="0" y="14" font-family="Virgil, Segoe UI Emoji" font-size="16px" fill="#000000" text-anchor="start" style="white-space: pre;" direction="ltr">Computer</text></g><g stroke-linecap="round"><g transform="translate(88.58510276305822 157.06520911617963) rotate(0 72.46463155194988 -0.20534738507919315)"><path d="M-0.38 -0.86 C23.5 -1.17, 119.12 -1.6, 143 -1.72 M1.62 1.31 C25.91 1.1, 121.35 -0.36, 145.31 -0.7" stroke="#000000" stroke-width="1" fill="none"></path></g><g transform="translate(88.58510276305822 157.06520911617963) rotate(0 72.46463155194988 -0.20534738507919315)"><path d="M26.32 -12.57 C18.39 -9.9, 10.87 -5.34, -0.8 0.57 M27.81 -11.26 C18.45 -7.23, 9.05 -5.37, -0.71 -1.68" stroke="#000000" stroke-width="1" fill="none"></path></g><g transform="translate(88.58510276305822 157.06520911617963) rotate(0 72.46463155194988 -0.20534738507919315)"><path d="M26.45 7.95 C18.46 4.99, 10.9 3.93, -0.8 0.57 M27.94 9.26 C18.34 6.78, 8.91 2.14, -0.71 -1.68" stroke="#000000" stroke-width="1" fill="none"></path></g><g transform="translate(88.58510276305822 157.06520911617963) rotate(0 72.46463155194988 -0.20534738507919315)"><path d="M115.85 8.7 C123.3 5.75, 131.17 4.53, 144.89 0.72 M117.34 10.01 C125.59 7.06, 134 2.23, 144.99 -1.53" stroke="#000000" stroke-width="1" fill="none"></path></g><g transform="translate(88.58510276305822 157.06520911617963) rotate(0 72.46463155194988 -0.20534738507919315)"><path d="M115.55 -11.82 C123.1 -9.14, 131.06 -4.74, 144.89 0.72 M117.04 -10.51 C125.57 -6.96, 134.08 -5.28, 144.99 -1.53" stroke="#000000" stroke-width="1" fill="none"></path></g></g><g stroke-linecap="round"><g transform="translate(247.70809124564744 40.388361288417116) rotate(0 -1.0908857209603298 45.4748604730502)"><path d="M-1.07 -0.54 C-1.56 14.37, -1.99 75.34, -2.4 90.51 M0.56 1.8 C-0.02 17.33, -1.93 76.58, -2.75 91.48" stroke="#000000" stroke-width="1" fill="none"></path></g><g transform="translate(247.70809124564744 40.388361288417116) rotate(0 -1.0908857209603298 45.4748604730502)"><path d="M-12.71 64.82 C-10.25 72.76, -7.19 83.8, -1.78 91.79 M-12.37 62.91 C-7.77 73.47, -3.8 85.61, -2.01 91.59" stroke="#000000" stroke-width="1" fill="none"></path></g><g transform="translate(247.70809124564744 40.388361288417116) rotate(0 -1.0908857209603298 45.4748604730502)"><path d="M7.79 65.68 C3.23 73.14, -0.74 83.89, -1.78 91.79 M8.13 63.77 C4.89 74.03, 1.01 85.84, -2.01 91.59" stroke="#000000" stroke-width="1" fill="none"></path></g></g><g stroke-linecap="round"><g transform="translate(82.31066568867845 24.188293764147147) rotate(0 65.75181073891969 0.07306981141542224)"><path d="M1.03 0.43 C22.37 0.46, 107.65 -0.37, 129.17 -0.62 M0.11 -0.38 C21.72 -0.11, 109.85 0.72, 131.39 0.76" stroke="#000000" stroke-width="1" fill="none"></path></g><g transform="translate(82.31066568867845 24.188293764147147) rotate(0 65.75181073891969 0.07306981141542224)"><path d="M29.87 -11.59 C17.47 -5.6, 5.65 -0.98, 0.16 -0.72 M29.77 -11.02 C17.43 -6.65, 7.16 -2.64, 0.77 1.36" stroke="#000000" stroke-width="1" fill="none"></path></g><g transform="translate(82.31066568867845 24.188293764147147) rotate(0 65.75181073891969 0.07306981141542224)"><path d="M30.02 8.93 C17.69 6.82, 5.82 3.32, 0.16 -0.72 M29.93 9.5 C17.54 5.84, 7.21 1.83, 0.77 1.36" stroke="#000000" stroke-width="1" fill="none"></path></g><g transform="translate(82.31066568867845 24.188293764147147) rotate(0 65.75181073891969 0.07306981141542224)"><path d="M103.86 9.29 C113.87 6.68, 124.33 3.18, 130.52 -0.39 M103.77 9.86 C113.49 6.45, 125.26 2.42, 131.13 1.69" stroke="#000000" stroke-width="1" fill="none"></path></g><g transform="translate(82.31066568867845 24.188293764147147) rotate(0 65.75181073891969 0.07306981141542224)"><path d="M103.99 -11.23 C113.82 -5.73, 124.22 -1.13, 130.52 -0.39 M103.9 -10.66 C113.56 -6.05, 125.28 -2.05, 131.13 1.69" stroke="#000000" stroke-width="1" fill="none"></path></g></g><g stroke-linecap="round"><g transform="translate(75.29772575375944 83.01870873465782) rotate(0 73.29829629931504 1.0765908893634446)"><path d="M-0.85 -0.58 C23.73 -0.3, 122.66 0.93, 147.45 1.19 M0.9 1.72 C25.4 2.26, 122.42 2.67, 146.9 2.74" stroke="#000000" stroke-width="2" fill="none"></path></g><g transform="translate(75.29772575375944 83.01870873465782) rotate(0 73.29829629931504 1.0765908893634446)"><path d="M117.69 14.15 C127.08 12.09, 135 8.9, 144.95 4.36 M118.75 13.11 C128.06 9.12, 137.21 5.51, 147.43 3.16" stroke="#000000" stroke-width="2" fill="none"></path></g><g transform="translate(75.29772575375944 83.01870873465782) rotate(0 73.29829629931504 1.0765908893634446)"><path d="M117.77 -6.37 C127.05 -2.38, 134.94 0.49, 144.95 4.36 M118.83 -7.41 C128.24 -4.79, 137.37 -1.79, 147.43 3.16" stroke="#000000" stroke-width="2" fill="none"></path></g></g><g transform="translate(100.85514114837451 53.7144114304939) rotate(0 44.5 10)"><text x="0" y="14" font-family="Virgil, Segoe UI Emoji" font-size="16px" fill="#000000" text-anchor="start" style="white-space: pre;" direction="ltr">programming</text></g></svg>