<svg version="1.1" xmlns="http://www.w3.org/2000/svg" viewBox="0 0 324.7376616517769 181.4541889792951" width="649.4753233035538" height="362.9083779585902">
  <!-- svg-source:excalidraw -->
  
  <defs>
    <style>
      @font-face {
        font-family: "Virgil";
        src: url("https://excalidraw.com/Virgil.woff2");
      }
      @font-face {
        font-family: "Cascadia";
        src: url("https://excalidraw.com/Cascadia.woff2");
      }
    </style>
  </defs>
  <rect x="0" y="0" width="324.7376616517769" height="181.4541889792951" fill="#ffffff"></rect><g transform="translate(10 146.4541889792951) rotate(0 33.5 12.5)"><text x="0" y="18" font-family="Virgil, Segoe UI Emoji" font-size="20px" fill="#000000" text-anchor="start" style="white-space: pre;" direction="ltr">Domain</text></g><g transform="translate(120.02017163109554 10) rotate(0 29.5 12.5)"><text x="0" y="18" font-family="Virgil, Segoe UI Emoji" font-size="20px" fill="#000000" text-anchor="start" style="white-space: pre;" direction="ltr">Human</text></g><g stroke-linecap="round"><g transform="translate(135.3939875171019 41.93260423156448) rotate(0 -36.75208226879107 46.779135617776404)"><path d="M-0.78 -0.41 C-13.03 15.21, -61.66 78.02, -74.17 93.96 M1.01 -1.66 C-11.24 14.08, -61.53 79.4, -74.52 95.22" stroke="#000000" stroke-width="1" fill="none"></path></g><g transform="translate(135.3939875171019 41.93260423156448) rotate(0 -36.75208226879107 46.779135617776404)"><path d="M-65.75 68.67 C-68.18 72.79, -68.38 80.47, -73.75 93.79 M-65.34 67.51 C-69.7 76.77, -73.26 88.28, -74.54 94.96" stroke="#000000" stroke-width="1" fill="none"></path></g><g transform="translate(135.3939875171019 41.93260423156448) rotate(0 -36.75208226879107 46.779135617776404)"><path d="M-49.65 81.4 C-56.06 82.3, -60.2 86.87, -73.75 93.79 M-49.25 80.24 C-59.62 84.78, -69.26 91.47, -74.54 94.96" stroke="#000000" stroke-width="1" fill="none"></path></g></g><g transform="translate(125.2090294249225 83.32677292649566) rotate(0 29.5 10)"><text x="0" y="14" font-family="Virgil, Segoe UI Emoji" font-size="16px" fill="#000000" text-anchor="start" style="white-space: pre;" direction="ltr">Meaning</text></g><g transform="translate(242.73766165177688 142.96410926686673) rotate(0 36 10)"><text x="0" y="14" font-family="Virgil, Segoe UI Emoji" font-size="16px" fill="#000000" text-anchor="start" style="white-space: pre;" direction="ltr">Computer</text></g><g stroke-linecap="round"><g transform="translate(88.58510276305822 157.37108412062827) rotate(0 72.46463155194988 -0.20534738507919315)"><path d="M-0.38 -0.86 C23.5 -1.17, 119.12 -1.6, 143 -1.72 M1.62 1.31 C25.91 1.1, 121.35 -0.36, 145.31 -0.7" stroke="#000000" stroke-width="1" fill="none"></path></g><g transform="translate(88.58510276305822 157.37108412062827) rotate(0 72.46463155194988 -0.20534738507919315)"><path d="M26.32 -12.57 C18.39 -9.9, 10.87 -5.34, -0.8 0.57 M27.81 -11.26 C18.45 -7.23, 9.05 -5.37, -0.71 -1.68" stroke="#000000" stroke-width="1" fill="none"></path></g><g transform="translate(88.58510276305822 157.37108412062827) rotate(0 72.46463155194988 -0.20534738507919315)"><path d="M26.45 7.95 C18.46 4.99, 10.9 3.93, -0.8 0.57 M27.94 9.26 C18.34 6.78, 8.91 2.14, -0.71 -1.68" stroke="#000000" stroke-width="1" fill="none"></path></g><g transform="translate(88.58510276305822 157.37108412062827) rotate(0 72.46463155194988 -0.20534738507919315)"><path d="M115.85 8.7 C123.3 5.75, 131.17 4.53, 144.89 0.72 M117.34 10.01 C125.59 7.06, 134 2.23, 144.99 -1.53" stroke="#000000" stroke-width="1" fill="none"></path></g><g transform="translate(88.58510276305822 157.37108412062827) rotate(0 72.46463155194988 -0.20534738507919315)"><path d="M115.55 -11.82 C123.1 -9.14, 131.06 -4.74, 144.89 0.72 M117.04 -10.51 C125.57 -6.96, 134.08 -5.28, 144.99 -1.53" stroke="#000000" stroke-width="1" fill="none"></path></g></g><g stroke-linecap="round"><g transform="translate(188.9966493203915 39.93384973616827) rotate(0 35.259363867476225 45.85505375139894)"><path d="M-1.07 -0.54 C10.77 14.5, 59.67 75.98, 71.59 91.27 M0.56 1.8 C12.31 17.46, 59.73 77.22, 71.25 92.25" stroke="#000000" stroke-width="1" fill="none"></path></g><g transform="translate(188.9966493203915 39.93384973616827) rotate(0 35.259363867476225 45.85505375139894)"><path d="M44.92 78.27 C52.87 82.01, 61.53 88.71, 72.22 92.55 M45.25 76.36 C56.09 82.05, 66.31 89.34, 71.99 92.35" stroke="#000000" stroke-width="1" fill="none"></path></g><g transform="translate(188.9966493203915 39.93384973616827) rotate(0 35.259363867476225 45.85505375139894)"><path d="M61.09 65.64 C63.62 73.56, 66.74 84.58, 72.22 92.55 M61.43 63.73 C66.1 74.27, 70.15 86.39, 71.99 92.35" stroke="#000000" stroke-width="1" fill="none"></path></g></g></svg>